<?xml version="1.0" standalone="no"?>
<!DOCTYPE svg PUBLIC "-//W3C//DTD SVG 20010904//EN"
 "http://www.w3.org/TR/2001/REC-SVG-20010904/DTD/svg10.dtd">
<svg version="1.0" xmlns="http://www.w3.org/2000/svg"
 width="1080.000000pt" height="1080.000000pt" viewBox="0 0 1080.000000 1080.000000"
 preserveAspectRatio="xMidYMid meet">

<g transform="translate(0.000000,1080.000000) scale(0.100000,-0.100000)"
fill="#000000" stroke="none">
<path d="M4403 9968 c-75 -9 -83 -12 -83 -32 0 -22 171 -1570 174 -1573 1 -1
46 3 100 9 l98 11 -6 31 c-3 17 -8 64 -12 104 l-7 74 45 -44 c199 -193 544
-182 749 23 121 120 176 276 165 469 -6 120 -25 197 -68 286 -123 252 -398
368 -674 283 -110 -34 -224 -124 -278 -219 -14 -25 -26 -38 -26 -30 0 17 -56
512 -65 578 -4 24 -11 41 -18 41 -7 -1 -49 -6 -94 -11z m784 -542 c219 -99
310 -420 186 -649 -37 -66 -120 -141 -191 -169 -46 -18 -76 -22 -157 -23 -88
0 -107 4 -157 27 -259 121 -332 511 -136 724 82 89 177 126 308 121 67 -3 98
-9 147 -31z"/>
<path d="M6482 9168 c-154 -343 -294 -653 -310 -689 l-30 -66 239 -107 c264
-119 342 -148 446 -166 97 -17 269 -8 353 18 228 73 414 296 486 581 61 238 5
461 -158 636 -103 110 -200 170 -487 300 -140 63 -255 115 -256 115 -1 0 -128
-280 -283 -622z m567 318 c236 -109 327 -180 393 -310 67 -133 72 -271 14
-440 -78 -225 -217 -376 -390 -422 -73 -20 -199 -17 -287 5 -99 26 -385 155
-381 173 6 27 477 1068 484 1068 3 0 79 -33 167 -74z"/>
<path d="M3572 9230 c-200 -53 -369 -198 -434 -375 -32 -88 -32 -262 0 -359
100 -299 312 -476 572 -477 162 -1 319 63 443 180 82 78 140 186 157 295 11
71 5 176 -11 176 -5 0 -46 -19 -93 -42 l-84 -41 -4 -68 c-10 -129 -84 -230
-215 -291 -127 -60 -275 -47 -379 31 -44 33 -114 113 -114 129 0 4 184 100
408 214 224 115 413 212 421 217 11 7 6 25 -27 92 -130 267 -375 388 -640 319z
m263 -189 c34 -16 78 -47 101 -73 40 -44 69 -87 62 -93 -2 -1 -151 -78 -332
-170 -259 -132 -330 -165 -337 -154 -5 8 -14 39 -20 69 -50 240 129 448 386
450 68 0 89 -4 140 -29z"/>
<path d="M2270 8858 c-30 -40 -58 -78 -63 -85 -5 -8 133 -192 393 -523 221
-282 400 -513 398 -515 -2 -2 -273 106 -603 241 -330 134 -602 244 -606 244
-4 0 -36 -39 -71 -87 l-65 -86 393 -526 c216 -289 391 -527 389 -529 -1 -2
-266 108 -587 244 -320 136 -592 248 -603 251 -15 2 -33 -14 -73 -66 -28 -38
-54 -75 -57 -83 -4 -9 198 -94 711 -298 394 -157 722 -286 728 -288 10 -2 136
156 136 171 0 5 -696 969 -733 1015 -8 10 -5 11 14 3 13 -5 269 -104 569 -221
300 -117 555 -216 566 -220 19 -8 30 2 81 68 33 42 63 83 67 89 4 8 -168 249
-459 643 -257 346 -467 630 -469 630 -1 0 -26 -32 -56 -72z"/>
<path d="M7941 8515 c-189 -53 -395 -249 -461 -437 -27 -79 -37 -225 -20 -299
44 -192 226 -392 408 -449 126 -39 253 -34 370 17 l43 18 -73 78 -73 77 -45
-16 c-66 -24 -170 -15 -240 21 -69 35 -150 118 -186 190 -21 43 -29 77 -32
136 -5 94 12 157 66 238 l36 55 331 -337 c183 -185 335 -337 340 -337 12 0 86
69 133 124 87 103 132 223 132 350 -1 103 -12 153 -57 243 -63 130 -197 253
-337 311 -78 32 -249 41 -335 17z m319 -198 c70 -33 149 -112 192 -190 31 -58
33 -68 33 -157 0 -84 -3 -101 -27 -145 -15 -27 -38 -63 -52 -80 l-25 -30 -260
265 c-143 146 -260 268 -260 272 -1 13 78 61 132 80 76 27 193 20 267 -15z"/>
<path d="M8603 7235 l-432 -463 49 -106 c47 -101 51 -105 77 -101 15 2 296 23
623 46 327 22 600 42 607 44 8 3 -1 33 -29 95 l-41 90 -41 0 c-23 -1 -262 -22
-533 -48 -477 -46 -492 -47 -475 -27 9 11 176 183 371 383 l354 362 -44 95
c-24 52 -46 95 -49 94 -3 0 -199 -209 -437 -464z"/>
<path d="M8955 6314 c-102 -22 -220 -81 -292 -148 -75 -69 -117 -133 -151
-228 -22 -62 -26 -90 -26 -183 0 -71 6 -133 17 -175 36 -136 117 -255 219
-322 57 -38 155 -78 190 -78 19 0 20 4 14 63 -13 125 -18 147 -32 147 -28 0
-109 49 -145 87 -45 47 -73 101 -88 171 -38 181 36 348 189 427 42 22 130 46
130 36 0 -20 109 -933 112 -935 2 -2 44 1 95 5 369 34 583 327 507 697 -45
223 -200 386 -415 437 -80 18 -231 18 -324 -1z m329 -198 c166 -50 265 -204
254 -395 -6 -96 -47 -190 -105 -242 -42 -36 -120 -74 -173 -84 l-35 -6 -38
333 c-21 183 -41 350 -44 371 l-6 37 50 0 c27 0 71 -6 97 -14z"/>
<path d="M1140 6133 c0 -121 47 -233 127 -304 l36 -31 -69 8 c-129 15 -117 22
-130 -81 -6 -49 -9 -93 -5 -96 8 -9 1160 -153 1167 -146 3 3 11 46 18 96 l12
91 -30 5 c-17 3 -173 23 -346 45 -173 22 -338 46 -367 55 -73 22 -143 72 -178
129 -28 46 -30 57 -33 162 l-4 112 -31 6 c-18 3 -62 8 -99 12 l-68 7 0 -70z"/>
<path d="M1645 5333 c-113 -16 -233 -66 -322 -134 -149 -115 -228 -314 -205
-515 38 -335 267 -547 587 -546 311 1 554 173 621 442 24 96 15 250 -20 355
-33 97 -100 199 -169 260 -125 110 -313 163 -492 138z m268 -223 c106 -40 191
-128 233 -240 24 -64 24 -201 1 -268 -50 -142 -194 -240 -385 -260 -159 -18
-291 24 -376 119 -70 78 -91 141 -91 274 0 100 3 115 28 166 34 70 119 152
192 185 124 57 285 67 398 24z"/>
<path d="M8515 5016 c-6 -19 -25 -179 -22 -183 6 -5 1581 -202 1586 -198 6 6
25 184 20 189 -2 2 -359 49 -793 103 -519 65 -789 96 -791 89z"/>
<path d="M8681 4555 c-130 -37 -272 -147 -338 -265 -187 -329 -78 -700 252
-860 111 -53 191 -72 305 -72 164 1 301 61 412 182 107 116 168 276 168 440 0
258 -156 459 -431 556 -94 34 -282 43 -368 19z m231 -189 c212 -45 372 -193
394 -362 14 -115 -34 -251 -120 -338 -60 -61 -121 -92 -213 -108 -87 -14 -191
5 -298 57 -237 114 -315 377 -175 593 90 140 234 195 412 158z"/>
<path d="M1945 3948 c-297 -127 -542 -233 -544 -234 -2 -2 13 -44 34 -93 31
-74 40 -88 55 -83 164 64 1070 460 1070 468 0 11 -63 160 -71 168 -2 3 -247
-99 -544 -226z"/>
<path d="M7607 3937 l-66 -74 284 -259 284 -259 -102 -6 c-149 -9 -248 -53
-349 -156 -104 -106 -158 -238 -158 -382 0 -158 55 -291 171 -415 141 -151
297 -226 467 -226 163 0 267 44 388 165 127 127 171 237 162 407 l-5 88 75
-69 76 -69 61 66 c33 36 60 71 60 78 0 7 -274 263 -610 569 -335 307 -624 570
-641 587 l-31 29 -66 -74z m602 -746 c80 -25 145 -68 215 -141 141 -148 167
-352 66 -508 -76 -118 -195 -185 -330 -185 -263 0 -506 274 -461 520 44 242
279 386 510 314z"/>
<path d="M2285 3620 c-165 -126 -322 -253 -348 -282 -27 -29 -65 -87 -85 -127
-35 -71 -37 -80 -36 -170 0 -116 22 -183 91 -285 78 -115 185 -185 320 -210
l67 -12 -57 -43 c-31 -24 -57 -48 -57 -53 0 -12 102 -147 112 -147 8 -1 889
668 922 700 19 18 18 19 -38 94 -32 41 -59 75 -60 75 -2 0 -126 -95 -277 -210
-322 -247 -384 -283 -492 -284 -94 -1 -165 32 -235 109 -121 132 -134 282 -38
414 36 48 83 87 437 357 l197 150 -57 77 c-31 42 -58 76 -61 76 -3 0 -140
-103 -305 -229z"/>
<path d="M1085 3616 c-75 -34 -108 -127 -67 -192 26 -41 84 -68 131 -60 135
22 160 200 35 252 -41 17 -60 17 -99 0z"/>
<path d="M2980 2464 c-168 -268 -309 -492 -313 -500 -6 -10 13 -27 70 -64 43
-28 81 -50 85 -50 3 0 89 131 190 292 101 160 205 316 231 344 70 77 141 109
237 108 92 0 163 -31 244 -105 76 -69 100 -128 94 -234 -6 -102 -14 -118 -242
-479 -97 -154 -176 -283 -176 -287 0 -4 36 -30 80 -57 l79 -51 202 322 c111
177 213 347 225 378 75 185 39 366 -101 504 -142 139 -319 186 -493 131 -22
-7 -20 -2 17 57 23 35 41 69 41 74 0 10 -144 103 -158 103 -4 -1 -144 -219
-312 -486z"/>
<path d="M6925 2595 c-27 -8 -87 -33 -133 -55 -171 -85 -287 -237 -313 -410
-13 -82 -5 -170 14 -170 7 0 48 20 92 43 l80 43 7 66 c11 117 58 193 160 259
182 117 406 78 523 -91 15 -22 26 -42 24 -44 -2 -2 -192 -99 -422 -216 -384
-195 -417 -214 -411 -233 3 -12 25 -57 47 -101 120 -232 373 -352 612 -291
207 53 377 197 442 375 25 66 28 89 27 185 0 93 -5 123 -28 190 -80 234 -253
410 -446 454 -63 15 -215 12 -275 -4z m545 -542 c69 -234 -70 -449 -318 -493
-110 -19 -215 13 -292 90 -36 36 -76 98 -68 105 8 7 654 335 660 335 4 0 12
-17 18 -37z"/>
<path d="M4498 2276 c-97 -35 -176 -104 -222 -193 -25 -50 -32 -78 -196 -762
-73 -302 -99 -426 -91 -431 23 -13 174 -41 181 -33 4 4 62 240 130 523 67 283
131 543 141 576 45 145 182 200 320 129 72 -38 117 -134 105 -225 l-6 -48 92
-21 c66 -16 93 -18 99 -10 14 23 18 116 8 178 -25 157 -136 270 -310 316 -67
18 -202 19 -251 1z"/>
<path d="M6111 2274 c-36 -8 -67 -16 -69 -19 -3 -3 24 -152 59 -333 76 -386
81 -472 37 -557 -14 -27 -37 -60 -50 -72 -34 -32 -115 -69 -180 -84 -32 -7
-58 -15 -58 -18 2 -21 39 -183 43 -187 3 -3 24 0 48 6 113 31 206 105 257 206
l29 58 17 -89 c9 -48 17 -89 19 -91 4 -4 177 33 184 40 5 4 -161 883 -209
1109 -11 54 -16 55 -127 31z"/>
</g>
</svg>
